:SAMPLES-PER-SECOND 30
:FRAME-RANGE 1-1086
:FULLY-SPECIFIED
:DEGREES
1019
root  -90.3572 38.8778 -31.6617 -1.61063 6.13279 1.91772
RightUpLeg  -15.1489 5.18574 -11.8057
RightLeg  25.139 6.23816 2.97856
RightFoot  -12.9242 0.0459403 9.67041
RightToes  1.21801e-010 1.2921e-014 -6.02303e-014
Spine  -6.32014 1.90657 0.854258
Spine1  9.84126 2.89111 -6.13804
HEad  14.8654 76.4882 -1.93546
LeftShoulder1  0.150539 2.74955 -20.9657
LeftArm  1.28536 2.65956 -54.7735
LeftForeArm  35.5432 1.74154 -13.6989
LeftHand  -0.0464915 4.75077 4.55032
RightShoulder  1.67949 2.10631 24.9499
RightArm  -30.8351 -8.38444 50.6361
RightForeArm  65.0384 -5.13056 1.3628
RightHand  0.109348 -6.35592 -15.2109
LeftUpLeg  -3.98465 2.20232 -5.58569
LeftLeg  17.2935 3.88068 2.1399
LeftFoot  -11.6855 0.0811071 3.61077
LeftToes  3.79492e-011 -8.60219e-011 1.56273e-011
1020
root  -90.4245 38.9532 -31.4986 -1.57608 7.00586 1.61206
RightUpLeg  -13.9556 7.32608 -11.6895
RightLeg  19.9365 6.85423 2.55129
RightFoot  -12.5067 0.0114444 9.47295
RightToes  1.21801e-010 1.2921e-014 -6.02303e-014
Spine  -6.80277 1.62132 1.14945
Spine1  10.7842 2.60184 -5.80981
HEad  12.0296 76.4333 -4.66142
LeftShoulder1  -0.0134681 3.35327 -20.9185
LeftArm  1.47511 2.21614 -55.0878
LeftForeArm  35.9027 1.69703 -13.7091
LeftHand  -0.0948854 3.64217 5.2729
RightShoulder  1.62447 1.93207 24.9244
RightArm  -31.2048 -7.13007 50.9168
RightForeArm  65.6624 -5.05116 1.02928
RightHand  0.137936 -6.62915 -14.6615
LeftUpLeg  -3.53363 2.09089 -5.16328
LeftLeg  16.69 3.04621 2.03047
LeftFoot  -11.5025 0.0739509 3.40759
LeftToes  3.79492e-011 -8.60219e-011 1.56273e-011
1021
root  -90.5127 38.9896 -31.3256 -1.51166 8.10234 1.55701
RightUpLeg  -12.7463 8.07934 -11.466
RightLeg  16.1141 7.1222 2.12605
RightFoot  -12.6095 0.0208759 9.61833
RightToes  1.21801e-010 1.2921e-014 -6.02303e-014
Spine  -6.93113 1.39156 1.21347
Spine1  10.8284 2.3186 -5.45568
HEad  11.8631 75.9858 -4.8328
LeftShoulder1  0.00819791 3.27357 -21.0663
LeftArm  2.04216 2.41768 -54.9064
LeftForeArm  35.7993 1.59771 -13.8525
LeftHand  -0.03928 4.86334 3.60854
RightShoulder  1.60497 1.87095 24.9108
RightArm  -31.4519 -7.25848 51.016
RightForeArm  65.8006 -5.02542 0.907655
RightHand  0.15761 -6.76684 -14.8586
LeftUpLeg  -3.20876 2.13565 -4.81283
LeftLeg  16.3692 1.99116 1.60162
LeftFoot  -11.4665 0.0728866 3.6063
LeftToes  3.79492e-011 -8.60219e-011 1.56273e-011
1022
root  -90.6165 39.0189 -31.1181 -1.45569 9.16077 1.70062
RightUpLeg  -11.8299 6.59021 -11.114
RightLeg  14.3126 8.27143 2.21616
RightFoot  -12.2144 -0.00830712 9.79913
RightToes  1.21801e-010 1.2921e-014 -6.02303e-014
Spine  -7.27063 1.19804 1.12037
Spine1  11.0368 2.0736 -5.20591
HEad  12.8287 75.6635 -3.83346
LeftShoulder1  0.0294434 3.1961 -21.183
LeftArm  2.31562 2.74472 -54.6979
LeftForeArm  35.8176 1.73398 -13.9511
LeftHand  -0.0282047 5.28868 3.3461
RightShoulder  1.58721 1.80432 24.968
RightArm  -31.5175 -7.37151 50.9571
RightForeArm  65.5996 -5.02785 0.878523
RightHand  0.0545437 -5.89634 -16.003
LeftUpLeg  -2.69712 1.96699 -4.7697
LeftLeg  15.8363 1.067 1.44787
LeftFoot  -11.4448 0.0718363 3.35089
LeftToes  3.79492e-011 -8.60219e-011 1.56273e-011
1023
root  -90.7191 39.0725 -30.904 -1.37872 10.0884 1.84692
RightUpLeg  -11.378 6.40379 -10.951
RightLeg  13.9637 9.05715 2.34748
RightFoot  -10.0779 -0.169538 9.13408
RightToes  1.21801e-010 1.2921e-014 -6.02303e-014
Spine  -7.58497 1.10599 1.31694
Spine1  11.1371 1.96008 -5.03459
HEad  14.7416 75.4869 -2.03902
LeftShoulder1  0.055257 3.10078 -21.036
LeftArm  2.03967 3.33533 -54.6142
LeftForeArm  36.0272 1.95912 -13.931
LeftHand  -0.0296125 5.22948 3.33382
RightShoulder  1.56974 1.7405 25.0145
RightArm  -31.4491 -7.81252 51.0001
RightForeArm  65.1556 -5.0614 0.980359
RightHand  0.193645 -7.06614 -14.7582
LeftUpLeg  -2.06194 1.76902 -4.68977
LeftLeg  15.0396 0.420152 1.29651
LeftFoot  -11.2623 0.0653119 3.49123
LeftToes  3.79492e-011 -8.60219e-011 1.56273e-011
1024
root  -90.8232 39.1059 -30.6566 -1.36935 10.896 1.96381
RightUpLeg  -10.7834 6.76729 -10.7826
RightLeg  13.8503 7.85942 1.90227
RightFoot  -9.2818 -0.236093 9.59528
RightToes  1.21801e-010 1.2921e-014 -6.02303e-014
Spine  -8.0042 1.06823 1.70854
Spine1  11.539 1.92858 -5.06637
HEad  15.1922 75.2575 -1.74911
LeftShoulder1  -0.000290534 3.30469 -21.2648
LeftArm  2.04054 3.70779 -54.2801
LeftForeArm  35.6758 2.26976 -13.995
LeftHand  -0.0179482 5.73621 3.24253
RightShoulder  1.51041 1.55294 24.985
RightArm  -31.1748 -6.42037 50.8797
RightForeArm  64.6593 -5.07125 0.932164
RightHand  0.0853817 -6.10301 -16.3822
LeftUpLeg  -1.3618 1.48385 -4.64805
LeftLeg  14.3772 -0.119092 1.35177
LeftFoot  -11.2594 0.0656663 2.82163
LeftToes  3.79492e-011 -8.60219e-011 1.56273e-011
1025
root  -90.9405 39.1147 -30.4202 -1.33371 11.5861 1.87299
RightUpLeg  -10.3545 5.82818 -10.4773
RightLeg  13.8682 8.14306 1.95817
RightFoot  -9.08576 -0.255673 9.81964
RightToes  1.21801e-010 1.2921e-014 -6.02303e-014
Spine  -8.10122 0.945762 1.9416
Spine1  11.4335 1.75909 -5.01715
HEad  15.7543 75.3734 -1.24084
LeftShoulder1  -0.0860505 3.61585 -21.3716
LeftArm  1.50124 4.45352 -54.0112
LeftForeArm  35.8299 2.55209 -13.9139
LeftHand  -0.0211408 5.57703 3.41305
RightShoulder  1.51789 1.52839 25.3132
RightArm  -31.2948 -6.51848 50.6133
RightForeArm  65.0064 -5.04672 0.861987
RightHand  0.0368956 -5.7548 -16.3717
LeftUpLeg  -1.09889 1.26914 -4.37871
LeftLeg  14.3808 -0.668424 1.4319
LeftFoot  -11.4714 0.0719939 2.68264
LeftToes  3.79492e-011 -8.60219e-011 1.56273e-011
1026
root  -91.0606 39.1022 -30.1818 -1.26041 12.1424 1.82422
RightUpLeg  -10.1529 3.80667 -10.2308
RightLeg  14.225 9.33871 2.4175
RightFoot  -8.90686 -0.275696 10.0933
RightToes  1.21801e-010 1.2921e-014 -6.02303e-014
Spine  -8.26743 0.906751 2.10625
Spine1  11.3888 1.67006 -4.94824
HEad  15.9385 75.4355 -1.08005
LeftShoulder1  -0.173468 3.93247 -21.3922
LeftArm  0.382267 5.04815 -54.0821
LeftForeArm  36.4661 3.46517 -13.6885
LeftHand  -0.0260799 5.37005 3.54939
RightShoulder  1.45298 1.27754 25.6196
RightArm  -30.5852 -5.92923 49.8075
RightForeArm  64.48 -5.11849 1.17215
RightHand  0.00805238 -5.54905 -16.2655
LeftUpLeg  -0.975392 1.16907 -4.06415
LeftLeg  14.6331 -1.16001 1.39064
LeftFoot  -11.8521 0.0879833 2.50775
LeftToes  3.79492e-011 -8.60219e-011 1.56273e-011
1027
root  -91.1729 39.1394 -29.9439 -1.25482 12.5839 1.60413
RightUpLeg  -9.56986 2.72823 -9.64169
RightLeg  13.8234 9.65029 2.28709
RightFoot  -8.40603 -0.325793 10.4513
RightToes  1.21801e-010 1.2921e-014 -6.02303e-014
Spine  -8.56857 0.909481 2.55632
Spine1  11.6315 1.60628 -4.72745
HEad  15.5048 75.5077 -1.36757
LeftShoulder1  -0.256042 4.23582 -21.261
LeftArm  -0.426655 5.87454 -54.302
LeftForeArm  36.7207 3.76752 -13.4961
LeftHand  -0.0219155 5.55841 3.28779
RightShoulder  1.48563 1.37242 25.6818
RightArm  -30.4306 -5.72894 49.4218
RightForeArm  64.5896 -5.12524 1.23529
RightHand  0.067783 -5.97157 -16.4942
LeftUpLeg  -0.590001 0.992293 -3.59742
LeftLeg  14.3859 -1.43884 1.41051
LeftFoot  -11.9881 0.0865241 2.56607
LeftToes  3.79492e-011 -8.60219e-011 1.56273e-011
1028
root  -91.2942 39.1773 -29.7154 -1.22729 13.0571 1.38654
RightUpLeg  -9.05114 1.98283 -9.06236
RightLeg  13.4679 9.96769 2.14739
RightFoot  -7.88218 -0.35944 10.0987
RightToes  1.21801e-010 1.2921e-014 -6.02303e-014
Spine  -8.76541 0.971985 2.9674
Spine1  11.6733 1.62884 -4.59473
HEad  14.4358 75.2497 -2.22176
LeftShoulder1  -0.259196 4.256 -20.9937
LeftArm  -0.89932 6.68815 -54.5253
LeftForeArm  36.932 4.104 -13.4177
LeftHand  -0.0198254 5.6547 3.24098
RightShoulder  1.49032 1.349 25.9544
RightArm  -30.2178 -5.33412 48.8291
RightForeArm  64.0712 -5.15555 1.30384
RightHand  0.112486 -6.307 -16.2417
LeftUpLeg  -0.187037 0.646004 -3.21254
LeftLeg  14.0137 -1.59304 1.61791
LeftFoot  -11.9988 0.0857789 2.38421
LeftToes  3.79492e-011 -8.60219e-011 1.56273e-011
1029
root  -91.4143 39.21 -29.4955 -1.18448 13.6078 1.14496
RightUpLeg  -8.62418 0.917376 -8.48738
RightLeg  13.2606 10.3547 2.13148
RightFoot  -7.47398 -0.379037 9.69518
RightToes  1.21801e-010 1.2921e-014 -6.02303e-014
Spine  -8.83667 0.981082 3.39732
Spine1  11.5486 1.59637 -4.51709
HEad  13.4187 75.0249 -3.00077
LeftShoulder1  -0.27445 4.31081 -21.0285
LeftArm  -1.05242 7.45505 -54.4105
LeftForeArm  37.0588 4.18756 -13.4033
LeftHand  -0.0182713 5.73557 3.26092
RightShoulder  1.51066 1.41437 25.9442
RightArm  -30.3519 -5.10407 48.6394
RightForeArm  63.9939 -5.14169 1.20577
RightHand  0.0946376 -6.16963 -16.3802
LeftUpLeg  0.106701 0.469309 -2.7253
LeftLeg  13.7476 -2.03558 1.64592
LeftFoot  -12.0758 0.0875457 2.33832
LeftToes  3.79492e-011 -8.60219e-011 1.56273e-011
1030
root  -91.5329 39.2401 -29.281 -1.16681 14.1888 0.931274
RightUpLeg  -8.22866 0.181305 -7.96874
RightLeg  13.1343 10.3507 2.04277
RightFoot  -7.27336 -0.377193 9.20543
RightToes  1.21801e-010 1.2921e-014 -6.02303e-014
Spine  -8.87176 0.998019 3.77457
Spine1  11.4507 1.56572 -4.37911
HEad  12.1465 74.7581 -4.05112
LeftShoulder1  -0.290468 4.36145 -21.2508
LeftArm  -1.15592 8.12372 -54.1248
LeftForeArm  37.0678 4.06821 -13.3767
LeftHand  -0.0174066 5.75198 3.15836
RightShoulder  1.53225 1.49489 25.8563
RightArm  -30.5043 -4.90107 48.4075
RightForeArm  63.8384 -5.12983 1.10309
RightHand  0.0966491 -6.20398 -16.0445
LeftUpLeg  0.472455 0.395379 -2.19457
LeftLeg  13.394 -2.58395 1.5927
LeftFoot  -12.0993 0.0851542 1.88526
LeftToes  3.79492e-011 -8.60219e-011 1.56273e-011
1031
root  -91.6513 39.2602 -29.0728 -1.12695 14.8736 0.759644
RightUpLeg  -7.91585 -0.306357 -7.52926
RightLeg  13.162 10.0914 1.97741
RightFoot  -7.09306 -0.367405 8.58657
RightToes  1.21801e-010 1.2921e-014 -6.02303e-014
Spine  -8.95444 1.00866 4.10757
Spine1  11.4226 1.55495 -4.34334
HEad  10.8244 74.3952 -5.14617
LeftShoulder1  -0.25713 4.23976 -21.2615
LeftArm  -1.45835 8.72129 -53.9846
LeftForeArm  36.9585 4.01232 -13.3009
LeftHand  -0.00968391 5.55393 3.37236
RightShoulder  1.53839 1.53181 25.7356
RightArm  -30.6892 -4.81752 48.3691
RightForeArm  63.8342 -5.11233 0.999142
RightHand  0.100261 -6.2323 -16.0156
LeftUpLeg  0.707493 0.315201 -1.70064
LeftLeg  13.1993 -3.2265 1.48451
LeftFoot  -12.1767 0.0863081 1.80562
LeftToes  3.79492e-011 -8.60219e-011 1.56273e-011
